<?xml version="1.0" encoding="utf-8"?>
<!-- Generator: Adobe Illustrator 15.1.0, SVG Export Plug-In . SVG Version: 6.00 Build 0)  -->
<!DOCTYPE svg PUBLIC "-//W3C//DTD SVG 1.1//EN" "http://www.w3.org/Graphics/SVG/1.1/DTD/svg11.dtd">
<svg version="1.1" id="Ebene_1" xmlns="http://www.w3.org/2000/svg" xmlns:xlink="http://www.w3.org/1999/xlink" x="0px" y="0px"
	 width="110px" height="55px" viewBox="0 0 110 55" enable-background="new 0 0 110 55" xml:space="preserve">
<rect opacity="0.4" fill="#2B2B2C" enable-background="new    " width="55" height="55"/>
<g id="playerpfeil_1_" opacity="0.85">
	<path fill="#FFFFFF" d="M15.703,11.97c0-1.1,0.742-1.491,1.65-0.87l22.293,15.27c0.908,0.621,0.908,1.639,0,2.26L17.354,43.9
		c-0.908,0.621-1.65,0.229-1.65-0.87L15.703,11.97L15.703,11.97z"/>
</g>
<rect x="55" opacity="0.8" fill="#2B2B2C" enable-background="new    " width="55" height="55"/>
<g id="playerpfeil_2_">
	<path fill="#FFFFFF" d="M70.703,11.97c0-1.1,0.742-1.491,1.65-0.87l22.293,15.27c0.908,0.621,0.908,1.639,0,2.26L72.354,43.9
		c-0.908,0.621-1.649,0.229-1.649-0.87L70.703,11.97L70.703,11.97z"/>
</g>
</svg>
