<?xml version="1.0" encoding="utf-8"?>
<!-- Generator: Adobe Illustrator 18.1.0, SVG Export Plug-In . SVG Version: 6.00 Build 0)  -->
<svg version="1.1" id="Ebene_2" xmlns="http://www.w3.org/2000/svg" xmlns:xlink="http://www.w3.org/1999/xlink" x="0px" y="0px"
	 width="595.3px" height="103px" viewBox="-7 345 595.3 103" enable-background="new -7 345 595.3 103" xml:space="preserve">
<g id="playerpfeil_5_">
	<path fill="#FFFFFF" d="M-7,347c0-1.1,0.7-1.5,1.7-0.9l10.3,7c0.9,0.6,0.9,1.6,0,2.3l-10.3,7c-0.9,0.6-1.7,0.2-1.7-0.9V347z"/>
</g>
<g>
	<path fill="#FFFFFF" d="M55.8,360.9c0,0.7-0.6,1.3-1.3,1.3h-2.6c-0.7,0-1.3-0.6-1.3-1.3v-14.6c0-0.7,0.6-1.3,1.3-1.3h2.6
		c0.7,0,1.3,0.6,1.3,1.3L55.8,360.9L55.8,360.9z"/>
	<path fill="#FFFFFF" d="M46.6,360.9c0,0.7-0.6,1.3-1.3,1.3h-2.6c-0.7,0-1.3-0.6-1.3-1.3v-14.6c0-0.7,0.6-1.3,1.3-1.3h2.6
		c0.7,0,1.3,0.6,1.3,1.3L46.6,360.9L46.6,360.9z"/>
</g>
<g>
	<path fill="#FFFFFF" d="M107.5,346.2c-0.9-0.8-2-1.2-3.2-1.2c-1.7,0-3.5,0.9-4.7,2.3c-1.6,1.9-2.1,4.3-1.2,6.3l1.9-2
		c-0.1-1,0.4-1.8,1.1-2.7c0.8-0.9,1.9-1.5,2.9-1.5c0.6,0,1.2,0.2,1.6,0.6c1.2,1.1,1.2,3.2-0.1,4.8c-0.7,0.8-1.5,1.4-2.4,1.5l-2,2.2
		c0.5,0.2,0.9,0.2,1.5,0.2c1.7,0,3.5-0.9,4.7-2.3C109.8,351.7,109.7,348.1,107.5,346.2z"/>
	<path fill="#FFFFFF" d="M91.3,365c0.9,0.8,2,1.2,3.1,1.2c1.7,0,3.5-0.9,4.7-2.3c1.6-1.9,2.1-4.3,1.2-6.3l-1.9,2
		c0.1,1-0.4,1.8-1.1,2.7c-0.8,0.9-1.9,1.5-2.9,1.5c-0.6,0-1.2-0.2-1.6-0.6c-1.2-1.1-1.2-3.2,0.1-4.8c0.7-0.8,1.5-1.4,2.4-1.5l2-2.2
		c-0.5-0.2-0.9-0.2-1.5-0.2c-1.7,0-3.5,0.9-4.7,2.3C89.1,359.5,89.1,363.1,91.3,365z"/>
	<path fill="#FFFFFF" d="M96.7,360.4c-0.7,0.8-1.7,1-2.3,0.5l0,0c-0.5-0.5-0.4-1.5,0.3-2.3l6.9-7.3c0.7-0.8,1.7-1,2.3-0.5l0,0
		c0.5,0.5,0.4,1.5-0.3,2.3L96.7,360.4z"/>
</g>
<g>
	<circle fill="#FFFFFF" cx="152.4" cy="348.8" r="3.8"/>
	<circle fill="#FFFFFF" cx="152.4" cy="360.5" r="3.8"/>
	<circle fill="#FFFFFF" cx="140.5" cy="354.8" r="3.8"/>
	<line fill="none" stroke="#FFFFFF" stroke-width="2" x1="152.4" y1="348.8" x2="140.5" y2="354.8"/>
	<line fill="none" stroke="#FFFFFF" stroke-width="2" x1="152.4" y1="360.5" x2="140.5" y2="354.8"/>
</g>
<path id="verschicken_11_" fill="#FFFFFF" d="M203.1,345H187c-0.9,0-1.6,0.7-1.6,1.6v10.9c0,0.9,0.7,1.6,1.6,1.6h16.1
	c0.9,0,1.6-0.7,1.6-1.6v-10.9C204.7,345.7,204,345,203.1,345z M202.9,357.3c-0.1,0.1-0.3,0.2-0.4,0.2c-0.2,0-0.3-0.1-0.4-0.2
	l-4.7-4.8l-0.5,0.5c-0.8,0.6-1.3,0.9-1.8,0.9c-0.5,0-1-0.3-1.8-0.9l0,0l-0.6-0.6c0,0,0,0,0,0l-4.7,4.8c-0.1,0.1-0.3,0.2-0.4,0.2
	c-0.2,0-0.3-0.1-0.4-0.2c-0.2-0.2-0.2-0.6,0-0.9l4.7-4.8l-4.6-4.3c-0.2-0.2-0.3-0.6,0-0.9c0.2-0.2,0.6-0.3,0.9,0l6.1,5.6
	c0.5,0.4,0.8,0.6,1,0.6c0.2,0,0.6-0.3,1.1-0.6l6-5.6c0.2-0.2,0.6-0.2,0.9,0c0.2,0.2,0.2,0.6,0,0.9l-4.7,4.4l4.7,4.7
	C203.2,356.7,203.2,357.1,202.9,357.3z"/>
<path id="wiederholen_5_" fill="#FFFFFF" d="M261.2,362.8H256c-0.4,0-0.8,0.4-0.8,0.8v0.3h0c0,4.1-3.4,7.5-7.5,7.5
	c-4.1,0-7.5-3.4-7.5-7.5c0-4.1,3.4-7.5,7.5-7.5c0.2,0,0.4,0,0.6,0v3.7c0,0.7,0.5,1,1.1,0.6l10.2-7c0.6-0.4,0.6-1.1,0-1.5l-10.2-7
	c-0.6-0.4-1.1-0.2-1.1,0.6v3.8c-0.2,0-0.4,0-0.6,0c-7.9,0-14.3,6.4-14.3,14.3c0,7.9,6.4,14.3,14.3,14.3c7.8,0,14.2-6.3,14.3-14.1
	c0,0,0,0,0,0v-0.4C262,363.2,261.6,362.8,261.2,362.8z"/>
<path id="wiederholen_6_" fill="#0D81C0" d="M309.3,362.8h-5.2c-0.4,0-0.8,0.4-0.8,0.8v0.3h0c0,4.1-3.4,7.5-7.5,7.5
	c-4.1,0-7.5-3.4-7.5-7.5c0-4.2,3.4-7.5,7.5-7.5c0.2,0,0.4,0,0.6,0v3.7c0,0.7,0.5,1,1.1,0.6l10.2-7c0.6-0.4,0.6-1.1,0-1.5l-10.2-7
	c-0.6-0.4-1.1-0.2-1.1,0.6v3.8c-0.2,0-0.4,0-0.6,0c-7.9,0-14.3,6.4-14.3,14.3c0,7.9,6.4,14.3,14.3,14.3c7.8,0,14.2-6.3,14.3-14.1
	c0,0,0,0,0,0v-0.4C310.1,363.2,309.7,362.8,309.3,362.8z"/>
<g>
	<path fill="#FFFFFF" d="M-1.7,402.6c0,0.7,0.5,1.2,1,1.2H9.6c0.6,0,1-0.5,1-1.2v-2.4c0-0.7-0.5-1.2-1-1.2H-0.7c-0.6,0-1,0.5-1,1.2
		L-1.7,402.6L-1.7,402.6z"/>
	<polyline fill="none" stroke="#FFFFFF" stroke-width="1.4" points="-2.8,409.1 -2.8,404.9 -7,404.9 	"/>
	<polyline fill="none" stroke="#FFFFFF" stroke-width="1.4" points="15.8,404.9 11.6,404.9 11.6,409.1 	"/>
	<polyline fill="none" stroke="#FFFFFF" stroke-width="1.4" points="-2.8,393.5 -2.8,397.7 -7,397.7 	"/>
	<polyline fill="none" stroke="#FFFFFF" stroke-width="1.4" points="15.8,397.7 11.6,397.7 11.6,393.5 	"/>
</g>
<g>
	<path fill="#0D81C0" d="M46.4,402.3c0,0.7,0.5,1.2,1,1.2h10.2c0.6,0,1-0.5,1-1.2v-2.4c0-0.7-0.5-1.2-1-1.2H47.4c-0.6,0-1,0.5-1,1.2
		L46.4,402.3L46.4,402.3z"/>
	<polyline fill="none" stroke="#0D81C0" stroke-width="1.4" points="45.2,408.9 45.2,404.7 41.1,404.7 	"/>
	<polyline fill="none" stroke="#0D81C0" stroke-width="1.4" points="63.9,404.7 59.7,404.7 59.7,408.8 	"/>
	<polyline fill="none" stroke="#0D81C0" stroke-width="1.4" points="45.2,393.2 45.2,397.4 41.1,397.4 	"/>
	<polyline fill="none" stroke="#0D81C0" stroke-width="1.4" points="63.9,397.4 59.7,397.4 59.7,393.2 	"/>
</g>
<g>
	<path fill="#FFFFFF" d="M92.5,402.6c0,0.7,0.5,1.2,1,1.2h12.6c0.6,0,1-0.5,1-1.2v-4.8c0-0.7-0.5-1.2-1-1.2H93.6c-0.6,0-1,0.5-1,1.2
		V402.6z"/>
	<polyline fill="none" stroke="#FFFFFF" stroke-width="1.4" points="93.8,393.6 89.6,393.6 89.6,397.8 	"/>
	<polyline fill="none" stroke="#FFFFFF" stroke-width="1.4" points="110.1,397.8 110.1,393.6 105.9,393.6 	"/>
	<polyline fill="none" stroke="#FFFFFF" stroke-width="1.4" points="105.9,406.7 110.1,406.7 110.1,402.6 	"/>
	<polyline fill="none" stroke="#FFFFFF" stroke-width="1.4" points="89.6,402.6 89.6,406.8 93.8,406.8 	"/>
</g>
<g>
	<path fill="#0D81C0" d="M140.3,402.7c0,0.7,0.5,1.2,1,1.2H154c0.6,0,1-0.5,1-1.2v-4.8c0-0.7-0.5-1.2-1-1.2h-12.6
		c-0.6,0-1,0.5-1,1.2V402.7z"/>
	<polyline fill="none" stroke="#0D81C0" stroke-width="1.4" points="141.6,393.7 137.4,393.7 137.4,397.9 	"/>
	<polyline fill="none" stroke="#0D81C0" stroke-width="1.4" points="157.9,397.9 157.9,393.7 153.7,393.7 	"/>
	<polyline fill="none" stroke="#0D81C0" stroke-width="1.4" points="153.7,406.8 157.9,406.8 157.9,402.7 	"/>
	<polyline fill="none" stroke="#0D81C0" stroke-width="1.4" points="137.4,402.7 137.4,406.9 141.6,406.9 	"/>
</g>
<g>
	<path fill="#FFFFFF" d="M207.2,393.4h-17.6c-1,0-1.8,0.8-1.8,1.8v0.4h9.2c0.5,0,1,0.4,1,1v9.1c0,0.5-0.4,1-1,1h-9.2v0.4
		c0,1,0.8,1.8,1.8,1.8h17.6c1,0,1.8-0.8,1.8-1.8v-11.9C208.9,394.2,208.2,393.4,207.2,393.4z"/>
	<path fill="#FFFFFF" d="M195.4,396.9h-9.3c-0.5,0-0.8,0.3-0.8,0.7v6.9c0,0.4,0.4,0.7,0.8,0.7h9.3c0.5,0,0.8-0.3,0.8-0.7v-6.9
		C196.2,397.2,195.8,396.9,195.4,396.9z M192.9,402.2h-1.1v1.1c0,0.6-0.5,1.1-1.1,1.1c-0.6,0-1.1-0.5-1.1-1.1v-1.1h-1.1
		c-0.6,0-1.1-0.5-1.1-1.1s0.5-1.1,1.1-1.1h1.1v-1.1c0-0.6,0.5-1.1,1.1-1.1c0.6,0,1.1,0.5,1.1,1.1v1.1h1.1c0.6,0,1.1,0.5,1.1,1.1
		C194,401.7,193.5,402.2,192.9,402.2z"/>
</g>
<path fill="#0D81C0" d="M255.3,393.5h-17.6c-1,0-1.8,0.8-1.8,1.8v0.4h9.2c0.5,0,1,0.4,1,1v9.1c0,0.5-0.4,1-1,1H236v0.4
	c0,1,0.8,1.8,1.8,1.8h17.6c1,0,1.8-0.8,1.8-1.8v-11.9C257,394.3,256.3,393.5,255.3,393.5z"/>
<path fill="#0D81C0" d="M243.5,397h-9.3c-0.5,0-0.8,0.3-0.8,0.7v6.9c0,0.4,0.4,0.7,0.8,0.7h9.3c0.5,0,0.8-0.3,0.8-0.7v-6.9
	C244.3,397.3,244,397,243.5,397z M241,402.3h-1.1v1.1c0,0.6-0.5,1.1-1.1,1.1c-0.6,0-1.1-0.5-1.1-1.1v-1.1h-1.1
	c-0.6,0-1.1-0.5-1.1-1.1c0-0.6,0.5-1.1,1.1-1.1h1.1V399c0-0.6,0.5-1.1,1.1-1.1c0.6,0,1.1,0.5,1.1,1.1v1.1h1.1c0.6,0,1.1,0.5,1.1,1.1
	C242.1,401.8,241.6,402.3,241,402.3z"/>
<path id="zusatzinfo_1_" fill="#FFFFFF" d="M329.1,363h6v6.2l10-6.2h49v-18h-65V363z"/>
<path id="zusatzinfo_2_" fill="#FFFFFF" d="M394.1,399.2h-6v-6.2l-10,6.2h-49v18h65V399.2z"/>
<g>
	<path fill="#0E79B9" d="M438.9,402.4c0,1.8-0.7,3.4-2.1,4.6c-1.4,1.3-3.2,1.9-5.2,1.9s-3.8-0.6-5.1-1.8c-1.4-1.2-2.1-2.8-2.1-4.8
		c0-1.8,0.6-3.4,1.9-4.7c1.3-1.3,3-2,5.3-2c2.1,0,3.9,0.6,5.3,1.9C438.2,399,438.9,400.5,438.9,402.4z M436.7,387.4h-10.1L425,345
		h13.1L436.7,387.4z"/>
</g>
<rect x="453" y="346" fill="none" stroke="#FFFFFF" stroke-width="1.4" width="19.5" height="13.2"/>
<rect x="493" y="346" fill="none" stroke="#FFFFFF" stroke-width="1.4" width="13.4" height="9.1"/>
<g>
	<path fill="#FFFFFF" d="M467.1,401.9c1.7-0.6,3-2,3-4c0-0.5-0.3-1.8-1.2-2.6c-0.6-0.5-1.5-1.2-4.4-1.2c-0.6,0-2.4,0.1-2.4,0.1v0.1
		c0.5,0.4,1.1,1.1,1.3,1.8c0.3,0,0.7,0,1.1,0c1.2,0.1,1.7,0.3,2.2,0.7c0.5,0.4,0.8,1.1,0.8,1.8c0,0.9-0.4,1.8-1.7,2.3
		c-1,0.4-2.3,0.5-2.3,0.5l0,0.3c0,0,0.7,0.4,1.5,1.3c0.6,0.9,4.4,6.4,4.4,6.4h3.1C472.5,409.4,467.5,402.4,467.1,401.9z"/>
	<g>
		<g>
			<path fill="#FFFFFF" d="M460.3,401.1c1.2-0.7,2-1.7,2-3.3c0-1.6-1-3.8-5.1-3.8c-2,0-4.2,0.1-4.2,0.1v15.3h3.5
				c4.4,0,6.8-1.6,6.8-4.7C463.3,402.8,462.2,401.6,460.3,401.1z M457.2,407.2c0,0-1.5,0-1.7,0V396c0,0,0.8,0,1.2,0c1.9,0,3,1,3,2.4
				c0,0.8-0.2,1.6-1.1,2.2c-0.7,0.5-1.7,0.6-1.7,0.6v0.4c0,0,1.3,0.2,2,0.5c1.3,0.6,1.6,1.5,1.7,2.7
				C460.7,406.7,458.9,407.2,457.2,407.2z"/>
		</g>
	</g>
</g>
</svg>
